#!OML:ASF H:\Terrain\Patient Classification 1\Walking\steve\steve.ASF
:FULLY-SPECIFIED
:DEGREES
167
root 6.13791 15.9381 -18.9555 5.05116 -1.91397 -1.49061
lowerback 0.552717 3.34483 5.09663
upperback -2.06145 4.5843 1.54757
thorax -2.16223 2.20979 -1.35207
lowerneck -10.1938 -0.84167 -2.31815
upperneck 18.2286 -0.798475 0.378813
head 7.27973 -0.499519 0.435941
rclavicle 2.31708e-015 1.43125e-014
rhumerus -19.0577 -8.21015 -84.1454
rradius 26.8524
rwrist 2.63407
rhand -15.1887 -45.2073
rfingers 7.12502
rthumb 10.9827 -74.9001
lclavicle 2.31708e-015 1.43125e-014
lhumerus -43.0822 0.57461 88.8123
lradius 21.5466
lwrist 7.80483
lhand -20.9077 -11.9321
lfingers 7.12502
lthumb 5.46345 17.9775
rfemur -16.9263 1.6464 26.0405
rtibia 35.1178
rfoot -17.1675 16.3873
rtoes 6.02921
lfemur -31.8341 8.6178 -19.9637
ltibia 53.9519
lfoot -13.1844 1.46875
ltoes -8.31598
168
root 6.14369 15.9337 -18.8111 5.16914 -2.30023 -1.64048
lowerback 0.414776 3.53631 5.24033
upperback -2.12316 4.83506 1.55969
thorax -2.1237 2.33237 -1.41434
lowerneck -10.6306 -0.929006 -1.82737
upperneck 18.7944 -0.850071 -0.361204
head 7.53824 -0.560597 0.105814
rclavicle 5.35849e-014 1.59028e-014
rhumerus -18.1992 -7.87412 -84.0911
rradius 27.0942
rwrist 2.49024
rhand -17.001 -42.4644
rfingers 7.12502
rthumb 9.23438 -72.2422
lclavicle 5.35849e-014 1.59028e-014
lhumerus -44.4181 0.389206 88.9877
lradius 21.6595
lwrist 7.96124
lhand -20.7344 -11.7112
lfingers 7.12502
lthumb 5.63078 18.194
rfemur -16.3788 1.56418 26.1707
rtibia 34.8643
rfoot -17.4272 17.0472
rtoes 6.70965
lfemur -32.3541 8.78499 -19.9398
ltibia 51.7979
lfoot -13.5806 1.61033
ltoes -10.4392
169
root 6.14981 15.9381 -18.6659 5.1778 -2.59516 -1.76438
lowerback 0.462405 3.61256 5.33663
upperback -2.15435 4.94372 1.59647
thorax -2.17173 2.38333 -1.43525
lowerneck -10.8817 -0.906297 -1.91636
upperneck 19.0926 -0.780451 -0.426548
head 7.68131 -0.541781 0.104166
rclavicle -4.51024e-014 8.74653e-015
rhumerus -17.3501 -6.7108 -84.1951
rradius 27.2463
rwrist 0.935205
rhand -19.0759 -35.8619
rfingers 7.12502
rthumb 7.23192 -65.7183
lclavicle -4.51024e-014 8.74653e-015
lhumerus -45.6631 0.356567 89.1521
lradius 21.8036
lwrist 8.3233
lhand -20.8033 -11.6503
lfingers 7.12502
lthumb 5.5643 18.2566
rfemur -15.6859 1.41962 26.2691
rtibia 34.5269
rfoot -17.5243 17.3823
rtoes 7.10137
lfemur -32.6883 8.85425 -19.8949
ltibia 49.5077
lfoot -13.6571 1.99247
ltoes -13.8425
170
root 6.15973 15.95 -18.5181 5.14825 -2.69134 -1.51687
lowerback 0.503221 3.70004 5.02083
upperback -2.11663 5.05321 1.43707
thorax -2.16018 2.44345 -1.42739
lowerneck -11.057 -0.946652 -1.67143
upperneck 19.0486 -0.87334 -0.458628
head 7.69718 -0.571529 0.0430215
rclavicle -6.64003e-014 -2.3059e-014
rhumerus -16.6046 -5.34056 -84.3966
rradius 28.1283
rwrist -0.948385
rhand -19.4008 -35.2062
rfingers 7.12502
rthumb 6.91825 -65.0732
lclavicle -6.64003e-014 -2.3059e-014
lhumerus -46.5133 0.226881 89.1166
lradius 21.545
lwrist 8.45902
lhand -21.0001 -11.993
lfingers 7.12502
lthumb 5.37422 17.9189
rfemur -14.8971 1.08518 25.9432
rtibia 34.0163
rfoot -17.1316 17.7988
rtoes 8.83541
lfemur -32.9432 8.49289 -20.1627
ltibia 47.1358
lfoot -14.0777 2.75138
ltoes -17.7809
171
root 6.17297 15.9613 -18.3728 5.15169 -2.68794 -1.44707
lowerback 0.458898 3.78445 4.92525
upperback -2.06305 5.1566 1.32062
thorax -2.07101 2.49876 -1.48924
lowerneck -11.1633 -0.996764 -1.15951
upperneck 18.9483 -0.97859 -0.765598
head 7.67878 -0.613835 -0.153573
rclavicle 3.34642e-014 -6.36111e-015
rhumerus -15.7157 -4.51417 -84.4619
rradius 28.9175
rwrist -1.93983
rhand -16.5505 -43.0638
rfingers 7.12502
rthumb 9.66901 -72.8219
lclavicle 3.34642e-014 -6.36111e-015
lhumerus -47.2578 0.473447 88.7881
lradius 21.1687
lwrist 8.17262
lhand -20.7298 -12.5272
lfingers 7.12502
lthumb 5.63525 17.3779
rfemur -13.9937 0.719161 25.8065
rtibia 33.3147
rfoot -17.1218 18.0924
rtoes 9.25251
lfemur -33.239 7.86636 -20.1371
ltibia 44.7653
lfoot -14.4674 3.51236
ltoes -18.2131
172
root 6.18639 15.9664 -18.2279 5.16725 -2.74408 -1.86001
lowerback 0.34258 3.76332 5.42002
upperback -2.01953 5.12822 1.47176
thorax -1.9352 2.48085 -1.59519
lowerneck -10.6047 -0.868949 -1.7411
upperneck 18.5278 -0.794469 -0.316014
head 7.4453 -0.522299 0.112222
rclavicle -4.51676e-014 -6.36111e-015
rhumerus -14.788 -3.62917 -84.382
rradius 29.4864
rwrist -2.55026
rhand -16.5191 -38.218
rfingers 7.12502
rthumb 9.69932 -67.9747
lclavicle -4.51676e-014 -6.36111e-015
lhumerus -48.259 1.06514 88.6221
lradius 21.1119
lwrist 8.13615
lhand -20.1954 -12.2666
lfingers 7.12502
lthumb 6.15119 17.6241
rfemur -13.0014 0.436035 26.1962
rtibia 32.4354
rfoot -16.9511 18.383
rtoes 9.52526
lfemur -33.5574 7.29085 -19.5345
ltibia 42.4648
lfoot -14.5754 3.85202
ltoes -16.187
173
root 6.19703 15.9735 -18.0813 5.25419 -2.93549 -2.10608
lowerback 0.248281 4.00125 5.60404
upperback -1.62915 5.42102 1.42001
thorax -1.43852 2.64276 -1.7243
lowerneck -11.1869 -0.919416 -2.51742
upperneck 17.9596 -0.942197 0.898495
head 7.3738 -0.532026 0.62132
rclavicle -3.71355e-014 -2.14687e-014
rhumerus -13.2045 -3.41744 -84.2907
rradius 30.4311
rwrist -3.13031
rhand -14.225 -51.2315
rfingers 7.12502
rthumb 11.9121 -80.8726
lclavicle -3.71355e-014 -2.14687e-014
lhumerus -48.2903 0.494832 88.8823
lradius 20.9447
lwrist 8.50133
lhand -20.0473 -11.8667
lfingers 7.12502
lthumb 6.29411 18.0198
rfemur -12.0505 0.225944 26.3837
rtibia 31.402
rfoot -16.3223 18.8413
rtoes 10.8215
lfemur -33.864 6.77178 -19.0905
ltibia 40.2714
lfoot -14.8722 4.23221
ltoes -16.1516
174
root 6.2057 15.9895 -17.9352 5.4218 -3.21106 -2.2868
lowerback -0.142645 3.96975 5.72442
upperback -1.86832 5.36403 1.56771
thorax -1.4742 2.60876 -1.62013
lowerneck -11.3347 -0.886489 -1.6685
upperneck 18.969 -0.766231 -0.552547
head 7.71991 -0.528999 0.0211686
rclavicle -5.82688e-015 -2.54444e-014
rhumerus -13.0195 -2.08074 -84.1828
rradius 31.6001
rwrist -2.90961
rhand -11.6623 -58.0736
rfingers 7.12502
rthumb 14.3824 -87.5553
lclavicle -5.82688e-015 -2.54444e-014
lhumerus -49.9989 1.13191 88.7842
lradius 20.9916
lwrist 8.57364
lhand -20.0685 -11.8362
lfingers 7.12502
lthumb 6.27373 18.0509
rfemur -11.1299 0.313948 26.493
rtibia 30.3252
rfoot -15.8349 19.179
rtoes 12.2787
lfemur -34.2242 6.42977 -18.731
ltibia 38.1402
lfoot -14.7327 4.94211
ltoes -18.6625
175
root 6.21557 15.9986 -17.7891 5.54719 -3.5198 -2.69822
lowerback -0.1017 4.22418 5.90726
upperback -1.48008 5.68746 1.52801
thorax -1.05292 2.7852 -1.7426
lowerneck -11.9233 -0.831423 -1.93671
upperneck 17.9662 -0.844462 0.521129
head 7.50072 -0.479956 0.408889
rclavicle 2.16178e-014 1.35174e-014
rhumerus -11.1597 -2.43767 -84.0871
rradius 31.8522
rwrist -2.6216
rhand -12.4255 -56.1008
rfingers 7.12502
rthumb 13.6469 -85.6334
lclavicle 2.16178e-014 1.35174e-014
lhumerus -49.9844 0.910554 88.6649
lradius 21.0807
lwrist 8.72423
lhand -19.6066 -11.0477
lfingers 7.12502
lthumb 6.71963 18.8257
rfemur -10.2112 0.526084 26.8513
rtibia 29.4055
rfoot -15.3755 19.4506
rtoes 13.4402
lfemur -34.5418 6.23798 -18.1275
ltibia 35.9115
lfoot -14.2341 5.67761
ltoes -20.3507
176
root 6.2266 15.9942 -17.6433 5.67015 -3.74116 -3.02637
lowerback -0.147688 4.38378 6.0892
upperback -1.31613 5.88894 1.53531
thorax -0.826519 2.89282 -1.81954
lowerneck -13.5326 -0.984742 -1.29571
upperneck 18.8144 -1.03749 -0.0916439
head 8.0647 -0.587828 0.0729993
rclavicle -2.48978e-014 -1.74931e-014
rhumerus -9.89389 -2.44201 -83.905
rradius 31.1892
rwrist -3.70077
rhand -17.5366 -42.931
rfingers 7.12502
rthumb 8.71757 -72.731
lclavicle -2.48978e-014 -1.74931e-014
lhumerus -50.6283 1.12775 88.3761
lradius 21.3115
lwrist 8.69653
lhand -19.1348 -10.6124
lfingers 7.12502
lthumb 7.17505 19.2459
rfemur -9.38729 0.410611 27.0985
rtibia 28.6394
rfoot -14.8797 19.8147
rtoes 14.1265
lfemur -34.8028 5.76901 -17.5323
ltibia 33.5886
lfoot -14.1913 6.35827
ltoes -19.5739
177
root 6.2372 15.9805 -17.4954 5.77928 -3.82483 -3.12257
lowerback -0.227513 4.43968 6.06196
upperback -1.37529 5.96009 1.55455
thorax -0.842384 2.92726 -1.78034
lowerneck -13.7381 -1.01386 -1.30331
upperneck 19.0761 -1.07658 -0.07023
head 8.18967 -0.605229 0.0754375
rclavicle -7.72775e-015 -7.95139e-015
rhumerus -9.30966 -1.21242 -83.7739
rradius 32.5456
rwrist -4.0346
rhand -16.9691 -43.0642
rfingers 7.12502
rthumb 9.26513 -72.8406
lclavicle -7.72775e-015 -7.95139e-015
lhumerus -51.7025 1.41436 88.1517
lradius 21.4564
lwrist 8.73201
lhand -18.7793 -10.2864
lfingers 7.12502
lthumb 7.51823 19.56
rfemur -8.58685 0.0354956 27.0893
rtibia 27.8938
rfoot -14.5054 20.2321
rtoes 14.2726
lfemur -35.0093 5.10332 -17.1375
ltibia 31.3175
lfoot -14.4809 6.66855
ltoes -16.5478
178
root 6.24681 15.967 -17.3457 5.80987 -3.98161 -3.29135
lowerback -0.195654 4.51841 6.10635
upperback -1.46741 6.07273 1.59157
thorax -0.946664 2.97868 -1.77285
lowerneck -13.7298 -1.01903 -1.31524
upperneck 19.3323 -1.08212 -0.0611124
head 8.27428 -0.608196 0.0792897
rclavicle 6.12754e-014 -3.97569e-015
rhumerus -8.77291 -0.536606 -83.602
rradius 32.6834
rwrist -5.22147
rhand -18.3852 -42.6136
rfingers 7.12502
rthumb 7.89859 -72.4461
lclavicle 6.12754e-014 -3.97569e-015
lhumerus -52.7735 1.61389 87.9607
lradius 21.4975
lwrist 8.74503
lhand -18.2048 -9.66971
lfingers 7.12502
lthumb 8.07271 20.1561
rfemur -7.69685 -0.297986 27.1577
rtibia 27.1182
rfoot -14.2036 20.6065
rtoes 13.9627
lfemur -35.0703 4.65941 -16.664
ltibia 29.1478
lfoot -15.0518 6.58858
ltoes -13.8701
179
root 6.25671 15.963 -17.1983 5.88156 -4.26509 -3.85116
lowerback -0.195907 4.67034 6.53148
upperback -1.50753 6.27985 1.72069
thorax -0.943472 3.07705 -1.8709
lowerneck -13.6709 -0.999374 -1.41616
upperneck 19.4285 -1.06857 0.107893
head 8.29739 -0.592057 0.154126
rclavicle -7.60848e-014 -3.81667e-014
rhumerus -8.1925 -0.507235 -83.413
rradius 32.4882
rwrist -5.86524
rhand -20.5173 -41.3951
rfingers 7.12502
rthumb 5.84036 -71.2946
lclavicle -7.60848e-014 -3.81667e-014
lhumerus -53.7973 1.57932 87.9612
lradius 21.6773
lwrist 9.01785
lhand -17.9145 -9.49253
lfingers 7.12502
lthumb 8.35282 20.3223
rfemur -6.78671 -0.463991 27.6202
rtibia 26.3414
rfoot -13.8811 21.0659
rtoes 14.0274
lfemur -35.1441 4.4868 -15.7915
ltibia 27.0776
lfoot -15.5676 6.8831
ltoes -14.8968
180
root 6.26785 15.9669 -17.0522 5.99687 -4.48933 -4.28111
lowerback -0.270666 4.76273 6.76469
upperback -1.46984 6.39606 1.85758
thorax -0.844809 3.13659 -1.84673
lowerneck -13.7853 -0.951461 -1.38889
upperneck 19.3767 -1.00184 0.08473
head 8.29988 -0.560718 0.148833
rclavicle -3.03395e-014 -2.22639e-014
rhumerus -7.4207 -0.447451 -83.2373
rradius 32.6866
rwrist -5.8432
rhand -20.7674 -41.4018
rfingers 7.12502
rthumb 5.59888 -71.3079
lclavicle -3.03395e-014 -2.22639e-014
lhumerus -54.5411 1.76018 87.9314
lradius 21.7414
lwrist 9.28459
lhand -17.7957 -9.2725
lfingers 7.12502
lthumb 8.46748 20.5377
rfemur -5.86883 -0.779319 27.9031
rtibia 25.4982
rfoot -13.6989 21.5772
rtoes 13.6521
lfemur -35.3736 4.41767 -15.1653
ltibia 25.1615
lfoot -15.4757 7.47305
ltoes -16.8755
